<?xml version="1.0" encoding="utf-8"?>
<!-- Generator: Adobe Illustrator 25.2.3, SVG Export Plug-In . SVG Version: 6.00 Build 0)  -->
<svg version="1.1" id="Layer_1" xmlns="http://www.w3.org/2000/svg" xmlns:xlink="http://www.w3.org/1999/xlink" x="0px" y="0px"
	 viewBox="0 0 332.6 467.4" style="enable-background:new 0 0 332.6 467.4;" xml:space="preserve">
<style type="text/css">
	.st0{fill:none;stroke:#FFFFFF;stroke-width:2;stroke-miterlimit:10;}
	.st1{opacity:0.5;stroke:#FFFFFF;stroke-width:2;stroke-miterlimit:10;enable-background:new    ;}
	.st2{opacity:0.5;fill:none;stroke:#FFFFFF;stroke-width:2;stroke-miterlimit:10;enable-background:new    ;}
	.st3{stroke:#FFFFFF;stroke-width:2;stroke-miterlimit:10;}
	.st4{opacity:0.5;fill:none;stroke:#FFFFFF;stroke-width:2;stroke-miterlimit:10;}
</style>
<g id="Layer_2_1_">
	<g id="katman_1">
		<line class="st0" x1="166.3" y1="191.8" x2="166.3" y2="466.9"/>
		<polyline class="st0" points="166.3,191.8 332.1,96.1 332.1,371.2 		"/>
		<line class="st0" x1="166.3" y1="466.9" x2="332.1" y2="371.2"/>
		<polyline class="st0" points="253.8,407.4 253.6,406.1 253.1,405 252.4,404.3 251.3,404.1 250.1,404.3 248.8,404.9 247.6,406 
			246.5,407.2 245.5,408.8 244.8,410.5 244.5,412 244.5,413.5 244.8,414.8 245.5,415.6 246.5,416 247.6,416.1 248.8,415.6 
			250.1,414.9 251.3,413.7 252.4,412.2 253.1,410.6 253.6,409 253.8,407.4 		"/>
		<polyline class="st0" points="253.8,150.3 253.6,148.9 253.1,147.9 252.4,147.2 251.3,146.9 250.1,147.2 248.8,147.8 247.6,148.7 
			246.5,150.1 245.5,151.7 244.8,153.2 244.5,154.9 244.5,156.4 244.8,157.5 245.5,158.4 246.5,158.9 247.6,158.9 248.8,158.5 
			250.1,157.6 251.3,156.4 252.4,155.1 253.1,153.4 253.6,151.8 253.8,150.3 		"/>
		<polyline class="st0" points="10.9,96.1 166.3,6.4 321.7,96.1 166.3,185.9 10.9,96.1 		"/>
		<line class="st0" x1="0.5" y1="96.1" x2="166.3" y2="191.8"/>
		<line class="st0" x1="166.3" y1="0.4" x2="0.5" y2="96.1"/>
		<line class="st0" x1="332.1" y1="96.1" x2="166.3" y2="0.4"/>
		<polyline class="st0" points="0.5,96.1 0.5,371.2 166.3,466.9 		"/>
		<path class="st0" d="M88,412.8l-0.2-1.6l-0.5-1.7c-0.9-2.8-5.9-8-8.3-4.1l-0.3,1.3v1.5l0.3,1.6l0.7,1.7l1,1.6l1.1,1.3l1.3,1.1
			l1.3,0.6l1.2,0.2l1.1-0.2l0.8-0.7l0.5-1.1V412.8"/>
		<path class="st0" d="M88,155.7l-0.2-1.6l-0.5-1.7c-0.9-2.8-5.9-8.1-8.3-4.1l-0.3,1.2v1.5l0.3,1.7l0.7,1.6l1,1.6l1.1,1.4l1.3,1
			l1.3,0.7l1.2,0.2l1.1-0.3l0.8-0.7l0.5-1.1V155.7"/>
		<polyline class="st0" points="249.6,150.5 249.4,149.5 248.9,148.9 248.2,148.7 247.4,149 		"/>
		<polyline class="st0" points="244.8,153.3 245,154.2 245.5,154.8 246.3,155 247.3,154.6 248.2,153.9 248.9,152.8 249.4,151.7 
			249.6,150.5 		"/>
		<path class="st0" d="M85.2,149l-0.9-0.3c-4,0.4,1,8.8,3.1,5.5l0.2-0.9"/>
		<line class="st0" x1="166.3" y1="6.4" x2="166.3" y2="185.9"/>
		<polyline class="st0" points="246.4,61.6 246.2,60.4 245.7,59.2 244.9,58.2 244,57.5 243.1,57.1 242.3,57.3 241.7,57.9 
			241.6,58.8 241.7,60 242.3,61.2 243.1,62.3 244,63 244.9,63.3 245.7,63.2 246.2,62.6 246.4,61.6 		"/>
		<polyline class="st0" points="59.9,76.7 59.7,75.8 59.1,75.3 58.3,75.1 57.5,75.4 56.6,76.2 55.8,77.2 55.2,78.4 55,79.6 
			55.2,80.5 55.8,81.1 56.6,81.2 57.5,80.9 58.3,80.2 59.1,79.2 59.7,77.9 59.9,76.7 		"/>
		<polyline class="st0" points="122,40.9 121.8,39.9 121.3,39.3 120.6,39.2 119.6,39.5 118.7,40.2 117.9,41.3 117.4,42.5 
			117.2,43.7 117.4,44.6 117.9,45.2 118.7,45.4 119.6,45.1 120.6,44.3 121.3,43.2 121.8,42 122,40.9 		"/>
		<polyline class="st0" points="56.3,76.4 55.9,77.2 55.4,78 		"/>
		<polyline class="st0" points="246,60 245.5,59.3 245.1,58.6 		"/>
		<polyline class="st0" points="118.4,40.6 118,41.4 117.5,42 		"/>
		<polyline class="st0" points="249.6,407.6 249.4,406.6 248.9,406.1 248.2,406 247.4,406.2 		"/>
		<polyline class="st0" points="244.8,410.5 245,411.3 245.5,411.9 246.3,412.1 247.3,411.8 248.2,411 248.9,410 249.4,408.8 
			249.6,407.6 		"/>
		<path class="st0" d="M85.2,406.2l-0.9-0.2c-3.8-0.1,0.8,8.9,3.1,5.4l0.2-0.9"/>
		<path class="st1" d="M165.4,253.4"/>
		<polyline class="st1" points="9.9,127.4 165.4,37.7 320.8,127.4 165.4,217.2 9.9,127.4 		"/>
		<polyline class="st2" points="10.6,357.3 166.1,447.1 321.5,357.3 166.1,267.6 10.6,357.3 9.9,339.3 165.4,249.6 320.8,339.3 
			165.4,429.1 9.9,339.3 		"/>
	</g>
</g>
<path class="st3" d="M321.7,343.1"/>
<path class="st3" d="M321.7,329.4"/>
<path class="st3" d="M166.1,253.4"/>
<path class="st3" d="M166.1,239.2"/>
<path class="st3" d="M27.7,339.3"/>
<line class="st4" x1="321.5" y1="357.3" x2="321.5" y2="339.3"/>
<line class="st0" x1="26.7" y1="349.3" x2="182.1" y2="259.5"/>
<line class="st0" x1="44.2" y1="359.1" x2="199.6" y2="269.4"/>
<line class="st0" x1="59.1" y1="367.9" x2="214.5" y2="278.2"/>
<line class="st0" x1="90.1" y1="385.1" x2="245.4" y2="295.3"/>
<line class="st0" x1="104.4" y1="394.2" x2="259.7" y2="304.4"/>
<line class="st0" x1="74.9" y1="376.3" x2="230.3" y2="286.5"/>
<line class="st0" x1="118.7" y1="402.4" x2="274" y2="312.6"/>
<line class="st0" x1="132.8" y1="410.4" x2="288.1" y2="320.6"/>
<line class="st0" x1="147.6" y1="419.1" x2="302.9" y2="329.3"/>
<line class="st0" x1="305.2" y1="348.3" x2="149.8" y2="258.5"/>
<line class="st0" x1="292.2" y1="357.3" x2="136.8" y2="267.6"/>
<line class="st0" x1="262.7" y1="374.1" x2="107.3" y2="284.4"/>
<line class="st0" x1="277.3" y1="365.5" x2="121.9" y2="275.7"/>
<line class="st0" x1="244.5" y1="384.1" x2="89.1" y2="294.4"/>
<line class="st0" x1="227.5" y1="393.2" x2="72.1" y2="303.5"/>
<line class="st0" x1="210.4" y1="402.4" x2="55.1" y2="312.6"/>
<line class="st0" x1="193.3" y1="412.1" x2="38" y2="322.4"/>
<line class="st0" x1="177.2" y1="421.2" x2="21.9" y2="331.4"/>
</svg>
