<svg xmlns="http://www.w3.org/2000/svg" viewBox="0 0 384.79 384.53"><defs><style>.cls-1{fill:#fff;}</style></defs><g id="Layer_2" data-name="Layer 2"><g id="Layer_1-2" data-name="Layer 1"><path class="cls-1" d="M192.17,384.5C86.13,386,.26,295.91,0,193.09-.26,87.1,87.16-.56,193.65,0,296.24.54,385,86.51,384.79,192.81,384.62,296.85,296.58,386.27,192.17,384.5ZM214,339.74c54.59-3.67,132.43-62.2,127.89-156.26C338.37,111.15,272.67,36.7,180.25,43.11,109.86,48,36.06,111.54,43.29,205.55c6,78.24,75.54,131.57,127.53,134V235.15H128.66V192.31h42.46c0-6.13-.16-11.77,0-17.4.26-7.15-.13-14.49,1.39-21.38,5-22.72,17.83-39.65,41.19-44.65,13.58-2.91,28-1.69,42.32-2.34v43.12c-9.66,0-19-.07-28.29,0-7.53.08-13.18,3.86-13.61,10.56-.68,10.56-.18,21.2-.18,32.29h42.1v42.82H214Z"/></g></g></svg>