<?xml version="1.0" encoding="utf-8"?>
<!-- Generator: Adobe Illustrator 25.2.3, SVG Export Plug-In . SVG Version: 6.00 Build 0)  -->
<svg version="1.1" id="Layer_1" xmlns="http://www.w3.org/2000/svg" xmlns:xlink="http://www.w3.org/1999/xlink" x="0px" y="0px"
	 viewBox="0 0 459.6 459.6" style="enable-background:new 0 0 459.6 459.6;" xml:space="preserve">
<style type="text/css">
	.st0{fill:#FFFFFF;}
</style>
<g id="Layer_2_1_">
	<g id="katman_1">
		<path class="st0" d="M229.8,41.4c61.3,0,68.6,0.2,92.8,1.3c22.4,1,34.6,4.8,42.7,7.9c10,3.7,19,9.6,26.4,17.2
			c7.6,7.4,13.5,16.4,17.2,26.4c3.1,8.1,6.9,20.3,7.9,42.7c1.1,24.2,1.3,31.5,1.3,92.9s-0.2,68.6-1.3,92.8
			c-1,22.4-4.8,34.6-7.9,42.7c-7.7,20-23.6,35.9-43.6,43.6c-8.1,3.1-20.3,6.9-42.7,7.9c-24.2,1.1-31.5,1.3-92.9,1.3
			s-68.6-0.2-92.9-1.3c-22.4-1-34.6-4.8-42.7-7.9c-10-3.7-19-9.6-26.4-17.2c-7.6-7.4-13.5-16.4-17.2-26.4
			c-3.1-8.1-6.9-20.3-7.9-42.7c-1.1-24.2-1.3-31.5-1.3-92.9s0.2-68.6,1.3-92.9c1-22.4,4.8-34.6,7.9-42.7c3.7-10,9.6-19,17.2-26.4
			c7.4-7.6,16.4-13.5,26.4-17.2c8.1-3.1,20.3-6.9,42.7-7.9C161.2,41.6,168.4,41.4,229.8,41.4 M229.8,0c-62.4,0-70.2,0.3-94.7,1.4
			s-41.2,5-55.8,10.7C63.9,17.8,50,26.9,38.6,38.6C26.9,50,17.8,63.9,12.1,79.3c-5.7,14.6-9.6,31.3-10.7,55.8S0,167.4,0,229.8
			s0.3,70.2,1.4,94.7s5,41.2,10.7,55.8c5.8,15.3,14.8,29.2,26.5,40.7c11.5,11.7,25.4,20.7,40.7,26.5c14.6,5.7,31.3,9.6,55.8,10.7
			s32.3,1.4,94.7,1.4s70.2-0.3,94.7-1.4s41.2-5,55.8-10.7c30.9-11.9,55.3-36.3,67.2-67.2c5.7-14.6,9.6-31.3,10.7-55.8
			s1.4-32.3,1.4-94.7s-0.3-70.2-1.4-94.7s-5-41.2-10.7-55.8C441.7,63.9,432.7,50,421,38.6c-11.5-11.7-25.4-20.7-40.7-26.5
			C365.7,6.4,349,2.5,324.5,1.4S292.2,0,229.8,0"/>
		<path class="st0" d="M229.8,111.8c-65.2,0-118,52.8-118,118s52.8,118,118,118s118-52.8,118-118v0
			C347.8,164.6,295,111.8,229.8,111.8 M229.8,306.4c-42.3,0-76.6-34.3-76.6-76.6s34.3-76.6,76.6-76.6s76.6,34.3,76.6,76.6
			c0,0,0,0,0,0C306.4,272.1,272.1,306.4,229.8,306.4L229.8,306.4"/>
		<path class="st0" d="M380,107.1c0,15.2-12.3,27.6-27.6,27.6c-15.2,0-27.6-12.3-27.6-27.6s12.3-27.6,27.6-27.6c0,0,0,0,0,0
			C367.7,79.5,380,91.9,380,107.1C380,107.1,380,107.1,380,107.1"/>
	</g>
</g>
</svg>
